<svg xmlns="http://www.w3.org/2000/svg" width="114.777" height="17.961" viewBox="0 0 114.777 17.961">
  <g id="Moyenne" transform="translate(-1122 -117)">
    <path id="Tracé_6" data-name="Tracé 6" d="M8.738,1.455a.726.726,0,0,1,1.3,0L12.379,6.2a.727.727,0,0,0,.548.4l5.228.761a.728.728,0,0,1,.4,1.242L14.775,12.3a.73.73,0,0,0-.209.644l.893,5.217a.728.728,0,0,1-1.055.768L9.727,16.463a.725.725,0,0,0-.676,0L4.374,18.926a.727.727,0,0,1-1.055-.768l.893-5.217A.729.729,0,0,0,4,12.3L.22,8.6a.728.728,0,0,1,.4-1.242L5.852,6.6A.727.727,0,0,0,6.4,6.2Z" transform="translate(1122 115.951)" fill="#fc0"/>
    <path id="Tracé_7" data-name="Tracé 7" d="M8.738,1.455a.726.726,0,0,1,1.3,0L12.379,6.2a.727.727,0,0,0,.548.4l5.228.761a.728.728,0,0,1,.4,1.242L14.775,12.3a.73.73,0,0,0-.209.644l.893,5.217a.728.728,0,0,1-1.055.768L9.727,16.463a.725.725,0,0,0-.676,0L4.374,18.926a.727.727,0,0,1-1.055-.768l.893-5.217A.729.729,0,0,0,4,12.3L.22,8.6a.728.728,0,0,1,.4-1.242L5.852,6.6A.727.727,0,0,0,6.4,6.2Z" transform="translate(1146 115.951)" fill="#fc0"/>
    <path id="Tracé_8" data-name="Tracé 8" d="M8.738,1.455a.726.726,0,0,1,1.3,0L12.379,6.2a.727.727,0,0,0,.548.4l5.228.761a.728.728,0,0,1,.4,1.242L14.775,12.3a.73.73,0,0,0-.209.644l.893,5.217a.728.728,0,0,1-1.055.768L9.727,16.463a.725.725,0,0,0-.676,0L4.374,18.926a.727.727,0,0,1-1.055-.768l.893-5.217A.729.729,0,0,0,4,12.3L.22,8.6a.728.728,0,0,1,.4-1.242L5.852,6.6A.727.727,0,0,0,6.4,6.2Z" transform="translate(1170 115.951)" fill="#fc0"/>
    <path id="Tracé_9" data-name="Tracé 9" d="M8.738,1.455a.726.726,0,0,1,1.3,0L12.379,6.2a.727.727,0,0,0,.548.4l5.228.761a.728.728,0,0,1,.4,1.242L14.775,12.3a.73.73,0,0,0-.209.644l.893,5.217a.728.728,0,0,1-1.055.768L9.727,16.463a.725.725,0,0,0-.676,0L4.374,18.926a.727.727,0,0,1-1.055-.768l.893-5.217A.729.729,0,0,0,4,12.3L.22,8.6a.728.728,0,0,1,.4-1.242L5.852,6.6A.727.727,0,0,0,6.4,6.2Z" transform="translate(1194 115.951)" fill="#fc0"/>
    <path id="Tracé_10" data-name="Tracé 10" d="M8.738,1.455a.726.726,0,0,1,1.3,0L12.379,6.2a.727.727,0,0,0,.548.4l5.228.761a.728.728,0,0,1,.4,1.242L14.775,12.3a.73.73,0,0,0-.209.644l.893,5.217a.728.728,0,0,1-1.055.768L9.727,16.463a.725.725,0,0,0-.676,0L4.374,18.926a.727.727,0,0,1-1.055-.768l.893-5.217A.729.729,0,0,0,4,12.3L.22,8.6a.728.728,0,0,1,.4-1.242L5.852,6.6A.727.727,0,0,0,6.4,6.2Z" transform="translate(1218 115.951)" fill="#fc0"/>
  </g>
</svg>
