<svg xmlns="http://www.w3.org/2000/svg" xmlns:xlink="http://www.w3.org/1999/xlink" width="49.754" height="61.08" viewBox="0 0 49.754 61.08">
  <defs>
    <filter id="Tracé_12" x="0" y="0" width="49.754" height="61.08" filterUnits="userSpaceOnUse">
      <feOffset dy="2" input="SourceAlpha"/>
      <feGaussianBlur stdDeviation="2.5" result="blur"/>
      <feFlood flood-opacity="0.2"/>
      <feComposite operator="in" in2="blur"/>
      <feComposite in="SourceGraphic"/>
    </filter>
  </defs>
  <g id="posClient" transform="translate(-182.14 -152.5)">
    <g transform="matrix(1, 0, 0, 1, 182.14, 152.5)" filter="url(#Tracé_12)">
      <path id="Tracé_12-2" data-name="Tracé 12" d="M207.017,158A17.366,17.366,0,0,0,193,185.649l.393.518,4.962,6.524,8.661,11.388,8.659-11.388,4.978-6.545.378-.5A17.377,17.377,0,0,0,207.017,158Z" transform="translate(-182.14 -152.5)" fill="#eb6237"/>
    </g>
    <g id="Groupe_1" data-name="Groupe 1" transform="translate(198.471 163.564)">
      <path id="Tracé_13" data-name="Tracé 13" d="M261.349,198.04a4.936,4.936,0,1,0-3.489-1.446A4.775,4.775,0,0,0,261.349,198.04Z" transform="translate(-252.932 -188.171)" fill="#fff"/>
      <path id="Tracé_14" data-name="Tracé 14" d="M254.58,254.918a12.214,12.214,0,0,0-.166-1.294,10.2,10.2,0,0,0-.318-1.3,6.434,6.434,0,0,0-.535-1.214,4.585,4.585,0,0,0-.807-1.051,3.558,3.558,0,0,0-1.159-.728,4,4,0,0,0-1.479-.268,1.5,1.5,0,0,0-.8.34c-.24.157-.521.338-.835.539a4.786,4.786,0,0,1-1.081.476,4.2,4.2,0,0,1-2.644,0,4.764,4.764,0,0,1-1.08-.476c-.311-.2-.592-.38-.836-.539a1.5,1.5,0,0,0-.8-.34,4,4,0,0,0-1.479.268,3.555,3.555,0,0,0-1.159.728,4.581,4.581,0,0,0-.806,1.051,6.441,6.441,0,0,0-.535,1.214,10.23,10.23,0,0,0-.318,1.3,12.169,12.169,0,0,0-.166,1.295c-.027.392-.041.8-.041,1.21a3.4,3.4,0,0,0,1.01,2.574,3.637,3.637,0,0,0,2.6.95h9.865a3.636,3.636,0,0,0,2.6-.95,3.4,3.4,0,0,0,1.011-2.574C254.622,255.715,254.608,255.308,254.58,254.918Z" transform="translate(-237.529 -237.832)" fill="#fff"/>
    </g>
  </g>
</svg>
